#format: frame checksums
#version: 2
#hash: MD5
#tb 0: 1/48000
#media_type 0: audio
#codec_id 0: pcm_s16le
#sample_rate 0: 48000
#channel_layout_name 0: 5.1(side)
#stream#, dts,        pts, duration,     size, hash
0,          0,          0,      240,     2880, 04a780fab55b4d0a9031f59568fd9f0c
0,        240,        240,      240,     2880, 2ae4b25cd1c1c8f8f6452c029fe6326d
0,        480,        480,      240,     2880, 30b341b1b8b643bd497659dbb150520f
0,        720,        720,      240,     2880, 170049610a81e6a2dc88fc489221957f
0,        960,        960,      240,     2880, d499719d64dcc36875f43c5503ce6adb
0,       1200,       1200,      240,     2880, dddfa7884cc0cb83b6ed5d8ef34daed6
0,       1440,       1440,      240,     2880, ce42530eb6dcc264845dc48577ed81ed
0,       1680,       1680,      240,     2880, a6e3444c8f0153ba8c051baa79354002
0,       1920,       1920,      240,     2880, c92e198448df97ccd41aa5a4662ac448
0,       2160,       2160,      240,     2880, 5a7d48ed971ecfae706f4257ccd972ae
0,       2400,       2400,      240,     2880, 87cbe44f826c5b6fd8550ed54c492f44
0,       2640,       2640,      240,     2880, 60c2367435e23ddd8de365f2a8d23c20
0,       2880,       2880,      240,     2880, cdfb1eee902ab866cdc0bad3a40bfc2d
0,       3120,       3120,      240,     2880, 7c273afb04407847a92293db876527a4
0,       3360,       3360,      240,     2880, 96d8a0e49286e9fc12e0e641f5547e4d
0,       3600,       3600,      240,     2880, 0884911863a358c85f18361bd43804a5
0,       3840,       3840,      240,     2880, 36c3dce48b7546e08426035d655c5976
0,       4080,       4080,      240,     2880, a855011d0e71178ff3c86b6328f7631f
0,       4320,       4320,      240,     2880, a224a3cb97e02c42c1f849ea5b0860ed
0,       4560,       4560,      240,     2880, ff73a982ca7a277c306c3e01daf840c6
0,       4800,       4800,      240,     2880, 0ed2155fdbf5ad49d7f31e1b23275715
0,       5040,       5040,      240,     2880, bc5f12f8b3aa9b6070d1c7c1395f968f
0,       5280,       5280,      240,     2880, 1d25bca45e55b6f0e7d39855e9c7a841
0,       5520,       5520,      240,     2880, 7f1469f3a7e6ad74add82cd32e80f385
0,       5760,       5760,      240,     2880, 6da0a4af763eadbc7486b47b26c7b0db
0,       6000,       6000,      240,     2880, 178c2e8a9d82d934790e6c3747a8f018
0,       6240,       6240,      240,     2880, 4bdbb4113c4c96f2a0ad807f2700677c
0,       6480,       6480,      240,     2880, 0f6495942697f5c787abaa33c96e1c59
0,       6720,       6720,      240,     2880, 152d5cf6e735a13cb81cb18be0795ded
0,       6960,       6960,      240,     2880, 76fe514917d691ac99e511859bfba135
0,       7200,       7200,      240,     2880, 3c16ca2f3ca2df2e79706ad4d6187ec1
0,       7440,       7440,      240,     2880, 277ae1c0ec24cda437ebae5e58004ddf
0,       7680,       7680,      240,     2880, 2dcca2d8d5371099e53b827313ef13f9
0,       7920,       7920,      240,     2880, f7f25288c0e3aa350f79355d4140dfa0
0,       8160,       8160,      240,     2880, 246fca419b1306771cb083cc86d5f884
0,       8400,       8400,      240,     2880, e5883971bada1ddd1db3fd7f84c5e882
0,       8640,       8640,      240,     2880, 05a02b163d548578f47bba3a8548902c
0,       8880,       8880,      240,     2880, 201383ccaafa04e168edeac3017ef06a
0,       9120,       9120,      240,     2880, f94af92ccb11306d10cac8c9a8a204ce
0,       9360,       9360,      240,     2880, 45a830d580ea255631623c4e0306e25a
0,       9600,       9600,      240,     2880, 4752f9534b10d1f6d5304af04575988e
0,       9840,       9840,      240,     2880, b7306608a0b2fa90325119019354c60a
0,      10080,      10080,      240,     2880, cf97ed74dff493da5c7def18773fa607
0,      10320,      10320,      240,     2880, d70523ec2abf0ca2287683dca3735b15
0,      10560,      10560,      240,     2880, 16f947bd241fb4cc647a83ab20c6c59c
0,      10800,      10800,      240,     2880, b0744db12168042c9eef3ef4218da4d5
0,      11040,      11040,      240,     2880, a1e1e8e4bf946d1f877a6e59a8549f92
0,      11280,      11280,      240,     2880, 3e3f4099f439c6dfbb014e02dfef25a7
0,      11520,      11520,      240,     2880, bc342a7ec27a02ef8bf6e9a9bd2f66fd
0,      11760,      11760,      240,     2880, f1c219e52af0b0e6ba1c29bf85c7c872
0,      12000,      12000,      240,     2880, dbe0104773863049af6c204869f53464
0,      12240,      12240,      240,     2880, d26fb43cd816d9784c8153e5939f1da9
0,      12480,      12480,      240,     2880, 8d151c67e4e9e025601d92ab0ebccb9e
0,      12720,      12720,      240,     2880, 4cebc66aac307ae6b5ccc1d508831ae3
0,      12960,      12960,      240,     2880, 11a55c1e765f121458b926d9a18b21f3
0,      13200,      13200,      240,     2880, ab413e011857e057eb45e5a3b9bc571f
0,      13440,      13440,      240,     2880, d239979d257f7050163fdee72d0be4cf
0,      13680,      13680,      240,     2880, d26d3f2630c7138afa3c81b410d8ca6b
0,      13920,      13920,      240,     2880, d7c282959e3ba9222e7541e8499ce511
0,      14160,      14160,      240,     2880, 777c2666cb81f6840298a35a731b87f3
0,      14400,      14400,      240,     2880, f389aaf4a6e3eb04ab548d213f2b94da
0,      14640,      14640,      240,     2880, 8a780b2a2e9da368013782baab78f9be
0,      14880,      14880,      240,     2880, 92ae30713d55fd4b62d2aa8b0b653454
0,      15120,      15120,      240,     2880, 4aa43229eb152140e75a040c10972b42
0,      15360,      15360,      240,     2880, 026b40ae714996ad4943c87b435fb747
0,      15600,      15600,      240,     2880, 3da9165e9ce2ceafb32359acba6c02f2
0,      15840,      15840,      240,     2880, f757fd4daf999acd167ad791e35b1c80
0,      16080,      16080,      240,     2880, 1b56f494bb86092e3f54a26fea76a72a
0,      16320,      16320,      240,     2880, a27dd6f8c9cc02cc718416ad6a2ed2ad
0,      16560,      16560,      240,     2880, c6bc6dbdb0e783e96ac87388a1e49520
0,      16800,      16800,      240,     2880, c83dfeee72fd867d250073541a1a189d
0,      17040,      17040,      240,     2880, 938fbe711221d5c51141fb2aba2520ab
0,      17280,      17280,      240,     2880, c7c658018c6fefae4ca8043438cbfa60
0,      17520,      17520,      240,     2880, f6df633539250af7232d720dbb868662
0,      17760,      17760,      240,     2880, 42cea3f7186861f19e0beb89614bbe4b
0,      18000,      18000,      240,     2880, c1f36f37d4f68470fd94b769d0fb1de8
0,      18240,      18240,      240,     2880, 91a8f15a467931af8a0673861861e369
0,      18480,      18480,      240,     2880, c17cc292db635ede89b9ad98a44c7775
0,      18720,      18720,      240,     2880, c5decf19268dc2e7f1768c34713456ee
0,      18960,      18960,      240,     2880, 6f06b828b1a9749068549ba3b53ebec6
0,      19200,      19200,      240,     2880, cf6ac7f11750835f17f53247e7fefe72
0,      19440,      19440,      240,     2880, 94bd05ea2fa86d93151beefbbbd74195
0,      19680,      19680,      240,     2880, b7b8788c6edb7bd49fa70b37e204d1a4
0,      19920,      19920,      240,     2880, 6c6e74bdd62ee0c1418e5b19c8678c45
0,      20160,      20160,      240,     2880, 3df0a92a7e8ba2c9f54c97c94e3001cc
0,      20400,      20400,      240,     2880, 8baf945a2d71eacc39f0ddc38f40124f
0,      20640,      20640,      240,     2880, 82faab120812f1716d40021507e319f3
0,      20880,      20880,      240,     2880, f804f8f06343aecde667069b2fc57fa4
0,      21120,      21120,      240,     2880, 9242feed123a3c3d1deaccf6f53897ff
0,      21360,      21360,      240,     2880, 33b2107e7c61a1770588c5a99ddfe739
0,      21600,      21600,      240,     2880, 4ed1c542afdb5e693037d1dda14adf3d
0,      21840,      21840,      240,     2880, 9f570bef40322d5225c7199601fa26da
0,      22080,      22080,      240,     2880, 60c5dedd7dbe72a351954fce61266d04
0,      22320,      22320,      240,     2880, ff82746d14d0772959b90c11f09078fb
0,      22560,      22560,      240,     2880, de2d0594abec58c76e25d67d2f64cd33
0,      22800,      22800,      240,     2880, d4be2bac5c3cf221cd3efd787dbb0972
0,      23040,      23040,      240,     2880, 895b3ceed76087f64b619cc8d157c2f1
0,      23280,      23280,      240,     2880, 7311f34947073802354970240932fcda
0,      23520,      23520,      240,     2880, 6695198a3d5c873a379e9a3bd1e252d8
0,      23760,      23760,      240,     2880, 14ece0114bfe2023e45b1210b06a11b2
